<svg id="Capa_1" enable-background="new 0 0 512 512" height="512" viewBox="0 0 512 512" width="512" xmlns="http://www.w3.org/2000/svg"><g><path d="m512 256c0 113.947-74.446 210.507-177.353 243.693-1.376.444-7.261-4.113-8.647-3.693-10.75 3.265-17.703 6.163-29 8-3.299.536-6.211 5.678-9.551 6.087-10.306 1.263-20.802 1.913-31.449 1.913-141.385 0-256-114.615-256-256s114.615-256 256-256 256 114.615 256 256z" fill="#d63030"/><path d="m440 221c0 109.905-89.095 199-199 199s-199-89.095-199-199 89.095-199 199-199 199 89.095 199 199z" fill="#f44545"/><path d="m391.433 286.171c-1.361-3.912.707-8.187 4.619-9.548l23.612-8.216c3.912-1.361 8.187.707 9.548 4.619s-.707 8.187-4.619 9.548l-23.612 8.216c-3.912 1.361-8.187-.707-9.548-4.619zm1.879-26.444 10.887-22.505c1.804-3.729.243-8.214-3.486-10.018s-8.214-.243-10.018 3.485l-10.887 22.505c-1.804 3.729-.243 8.214 3.485 10.018 3.73 1.805 8.215.244 10.019-3.485zm38.514 56.897-22.505-10.887c-3.729-1.804-8.214-.243-10.017 3.485-1.804 3.729-.243 8.214 3.485 10.018l22.505 10.887c3.729 1.804 8.214.243 10.017-3.485 1.804-3.729.244-8.214-3.485-10.018zm-308.138 44.536c-1.361-3.912-5.636-5.98-9.548-4.619l-23.612 8.216c-3.912 1.361-5.98 5.636-4.619 9.548s5.636 5.98 9.548 4.619l23.611-8.215c3.913-1.362 5.981-5.637 4.62-9.549zm8.138 22.959c-3.729-1.804-8.214-.243-10.017 3.486l-10.887 22.505c-1.804 3.729-.243 8.214 3.486 10.018s8.214.243 10.017-3.485l10.887-22.505c1.803-3.731.243-8.216-3.486-10.019zm-16.009-46.011c1.804-3.729.243-8.213-3.486-10.018l-22.505-10.886c-3.729-1.804-8.214-.243-10.017 3.485-1.804 3.729-.243 8.214 3.485 10.018l22.505 10.887c3.729 1.804 8.214.243 10.018-3.486z" fill="#fdbcbc"/><path d="m334.646 499.692c-15.164 4.89-30.945 8.404-47.197 10.395l-27.886-70.936c-2.559-6.51.877-13.833 7.519-16.025l39.7-13.105c7.17-2.367 14.745 2.292 15.866 9.759z" fill="#3493f8"/><path d="m301.8 469.901c-15.761 4.223-33.862-9.445-42.876-32.375l-32.724-83.241 59.995-16.075s34.769 117.686 25.306 126.301c-2.823 2.569-6.08 4.42-9.701 5.39z" fill="#76b6fa"/><path d="m311.5 464.51c-8.745-7.979-16.422-19.259-21.784-32.899l-33.554-85.354 53.302-14.282 13.281 88.451c2.817 18.766-1.781 35.469-11.245 44.084z" fill="#86befb"/><path d="m315.323 220.104c-36.448 65.412-94.771 68.95-141.917 55.556-30.458-16.406-58.142-54.433-71.142-102.949-12.597-47.014-4.238-77.128 12.829-105.733.943-1.58 3.11-1.951 4.497-.742 7.025 6.122 12.615 19.739 19.38 31.902 9.043 16.259 33.948 8.089 31.573-10.363-3.154-24.493-31.627-44.813.81-86.625 1.434-1.849 4.347-1.388 5.162.805 11.197 30.123 84.609 42.007 83.936 110.895-.141 14.377 15.696 14.328 15.972-.047.351-18.272-3.51-38.006-9.955-53.83-1.045-2.566 1.666-5.042 4.14-3.794 20.999 10.593 41.03 28.573 48.733 57.319 8.604 32.112 11.39 87.218-4.018 107.606z" fill="#ffc14f"/><path d="m319.341 112.498c8.604 32.112 11.39 87.218-4.017 107.606-8.429 15.127-18.029 26.946-28.389 36.011-67.788-21.634-119.791-78.613-134.341-149.268 9.614.494 19.487-7.139 17.95-19.072-3.154-24.493-31.627-44.813.81-86.625 1.434-1.849 4.347-1.388 5.162.805 11.197 30.123 84.609 42.007 83.936 110.895-.141 14.377 15.696 14.328 15.972-.047.351-18.272-3.51-38.006-9.955-53.83-1.045-2.566 1.666-5.042 4.14-3.794 20.998 10.593 41.029 28.572 48.732 57.319z" fill="#fff36c"/><path d="m284.815 233.394c-22.056 39.583-57.349 41.724-85.878 33.619-18.431-9.928-35.183-32.939-43.05-62.298s-2.229-47.827 8.769-65.64c5.094 2.744 8.814 12.191 13.442 20.513 5.487 9.866 20.553 4.913 19.104-6.283-1.988-15.365-20.427-28.02 2.826-55.272 2.165 20.852 52.013 26.312 51.582 70.458-.085 8.7 9.498 8.67 9.665-.028.246-12.812-2.929-26.81-7.995-36.941 14.243 6.023 28.759 17.325 33.966 36.756s6.892 52.778-2.431 65.116z" fill="#ffc14f"/><path d="m253.452 264.577c-17.714 8.481-37.34 7.315-54.515 2.436-18.431-9.928-35.183-32.939-43.05-62.298-7.424-27.707-2.82-45.713 6.964-62.624 12.863 51.832 46.044 95.641 90.601 122.486z" fill="#ffb52d"/><path d="m321.027 356.537-97.287 26.068c-4.975 1.333-10.332-2.526-11.965-8.62l-6.63-24.742c-1.633-6.094 1.077-12.114 6.052-13.447l97.287-26.068c4.975-1.333 10.332 2.526 11.964 8.62l6.63 24.742c1.634 6.093-1.076 12.114-6.051 13.447z" fill="#1380e2"/><path d="m333.282 333.436-131.669 35.281c-6.733 1.804-13.983-3.419-16.193-11.666l-2.667-9.955c-2.21-8.247 1.457-16.396 8.19-18.2l131.669-35.281c6.733-1.804 13.983 3.419 16.193 11.666l2.667 9.955c2.21 8.247-1.457 16.396-8.19 18.2z" fill="#3493f8"/><path d="m356.917 309.296-187.842 50.332c-7.01 1.878-14.026-1.578-15.671-7.719l-21.85-81.545c-1.645-6.142 2.703-12.643 9.713-14.521l187.842-50.332c7.01-1.878 14.026 1.578 15.672 7.719l21.85 81.545c1.644 6.142-2.705 12.643-9.714 14.521z" fill="#86befb"/><path d="m356.917 309.296-98.998 26.526c-32.712 8.765-65.455-7.363-73.134-36.022-7.679-28.659 12.614-58.998 45.325-67.763l98.998-26.526c7.01-1.878 14.026 1.578 15.672 7.719l21.85 81.545c1.645 6.142-2.704 12.643-9.713 14.521z" fill="#a7d0fc"/><path d="m335.032 297.703c-4.489 1.203-8.982-1.01-10.036-4.943l-15.264-56.967c-1.054-3.933 1.731-8.096 6.22-9.299 4.489-1.203 8.982 1.01 10.036 4.943l15.264 56.967c1.054 3.933-1.731 8.096-6.22 9.299zm-47.448-55.976c-1.054-3.933-5.547-6.146-10.036-4.943s-7.274 5.366-6.22 9.299l15.264 56.967c1.054 3.933 5.547 6.146 10.036 4.943s7.273-5.366 6.22-9.299zm-38.404 10.291c-1.054-3.933-5.547-6.146-10.036-4.943s-7.274 5.366-6.22 9.299l15.264 56.967c1.054 3.933 5.547 6.146 10.036 4.943 4.489-1.203 7.274-5.366 6.22-9.299zm-38.403 10.29c-1.054-3.933-5.547-6.146-10.036-4.943s-7.273 5.366-6.22 9.298l15.264 56.967c1.054 3.933 5.547 6.146 10.036 4.943s7.274-5.366 6.22-9.299z" fill="#55a4f9"/><path d="m181.418 338.863c-4.489 1.203-8.982-1.01-10.036-4.943l-15.264-56.967c-1.054-3.933 1.731-8.096 6.22-9.299 4.489-1.203 8.982 1.01 10.036 4.943l15.264 56.967c1.053 3.934-1.731 8.097-6.22 9.299z" fill="#3493f8"/><path d="m358.346 207.936-240.516 64.446c-5.335 1.429-10.818-1.736-12.247-7.071-1.429-5.335 1.736-10.818 7.071-12.247l240.516-64.446c5.335-1.429 10.818 1.736 12.247 7.071 1.429 5.334-1.736 10.818-7.071 12.247z" fill="#76b6fa"/></g></svg>