<svg id="Layer_1" enable-background="new 0 0 512 512" height="512" viewBox="0 0 512 512" width="512" xmlns="http://www.w3.org/2000/svg"><g><g id="XMLID_437_"><g id="XMLID_438_"><g id="XMLID_439_"><g id="XMLID_440_"><g id="XMLID_441_"><g id="XMLID_442_"><g id="XMLID_443_"><g id="XMLID_444_"><g id="XMLID_445_"><g id="XMLID_446_"><g id="XMLID_447_"><g id="XMLID_448_"><g id="XMLID_449_"><g id="XMLID_450_"><circle id="XMLID_451_" cx="256" cy="256" fill="#7bdbd8" r="256"/></g></g></g></g></g></g></g></g></g></g></g></g></g></g><path d="m512 256c0-35.924-7.413-70.113-20.771-101.139l-75.064-75.065-270.988 331.209 100.781 100.781c3.333.129 6.677.214 10.042.214 141.385 0 256-114.615 256-256z" fill="#42baba"/><g><path d="m95.835 79.796v218.123c0 46.677 16.128 99.782 94.315 146.457 40.589 24.23 91.111 24.23 131.699 0 78.187-46.674 94.315-99.78 94.315-146.457 0-57.624 0-218.123 0-218.123-105.459-23.714-214.869-23.714-320.329 0z" fill="#ffd097"/><path d="m416.16 79.8v218.12c0 46.68-16.12 99.78-94.31 146.46-20.29 12.11-43.07 18.16-65.85 18.16v-400.53c53.72 0 107.43 5.93 160.16 17.79z" fill="#c16629"/><g><g><path d="m239.137 202.302s-16.37-40.604-49.82-40.604c-33.451 0-52.667 40.604-52.667 40.604s50.712-32.345 102.487 0z" fill="#5c4f5e"/><path d="m272.863 202.302s16.369-40.604 49.82-40.604 52.667 40.604 52.667 40.604-50.712-32.345-102.487 0z" fill="#403842"/></g><path d="m256 316.92c-45.15 0-84.045-21.791-101.7-57.641-.17 2.408-.262 4.837-.262 7.289 0 56.312 45.65 101.962 101.962 101.962s101.962-45.65 101.962-101.962c0-2.451-.092-4.881-.262-7.289-17.655 35.85-56.55 57.641-101.7 57.641z" fill="#5c4f5e"/><path d="m357.96 266.57c0 56.31-45.65 101.96-101.96 101.96v-51.61c45.15 0 84.04-21.79 101.7-57.64.17 2.41.26 4.84.26 7.29z" fill="#403842"/></g></g></g></svg>