<svg viewBox="1 1 511.99998 511.99998" xmlns="http://www.w3.org/2000/svg"><path d="m512 256c0 141.386719-114.613281 256-256 256s-256-114.613281-256-256 114.613281-256 256-256 256 114.613281 256 256zm0 0" fill="#7eeef6"/><g fill="#585858"><path d="m343.636719 19.28125-73.851563 91.902344-8.144531-6.546875 73.851563-91.902344zm0 0"/><path d="m355.566406 16.003906c0 8.839844-7.164062 16.003906-16.003906 16.003906s-16.003906-7.164062-16.003906-16.003906 7.164062-16.003906 16.003906-16.003906 16.003906 7.164062 16.003906 16.003906zm0 0"/><path d="m176.507812 12.734375 73.851563 91.898437-8.144531 6.546876-73.851563-91.902344zm0 0"/><path d="m188.441406 16.003906c0 8.839844-7.164062 16.003906-16.003906 16.003906s-16.003906-7.164062-16.003906-16.003906 7.164062-16.003906 16.003906-16.003906 16.003906 7.164062 16.003906 16.003906zm0 0"/><path d="m324.964844 117.308594c0 38.089844-30.878906 68.964844-68.964844 68.964844s-68.964844-30.875-68.964844-68.964844c0-38.085938 30.878906-68.960938 68.964844-68.960938s68.964844 30.875 68.964844 68.960938zm0 0"/></g><path d="m495.285156 119.691406v227.507813c-7.449218 19.515625-17.210937 37.886719-28.964844 54.78125-3.992187 5.75-8.214843 11.328125-12.664062 16.71875-11.589844 14.074219-24.660156 26.886719-38.976562 38.203125h-317.355469c-35.902344-28.390625-64.007813-66.207032-80.601563-109.703125v-227.507813c0-20.9375 16.96875-37.910156 37.90625-37.910156h402.746094c20.929688 0 37.910156 16.972656 37.910156 37.910156zm0 0" fill="#797979"/><path d="m356.90625 137.140625c-93.390625-11.5625-186.78125-11.5625-280.171875 0-9.695313 1.199219-17.382813 8.707031-18.957031 18.347656-12.890625 79.039063-12.890625 158.074219 0 237.109375 1.574218 9.640625 9.261718 17.148438 18.957031 18.351563 93.390625 11.5625 186.78125 11.5625 280.171875 0 9.691406-1.203125 17.382812-8.710938 18.953125-18.351563 12.890625-79.035156 12.890625-158.070312 0-237.109375-1.570313-9.636719-9.261719-17.148437-18.953125-18.347656zm0 0" fill="#585858"/><path d="m363.167969 385.953125c-1.003907 6.375-6.132813 11.304687-12.550781 12.070313-11.898438 1.417968-23.832032 2.652343-35.765626 3.695312-21.785156 1.914062-43.613281 3.1875-65.359374 3.835938-10.917969.324218-21.804688.480468-32.671876.480468-10.867187 0-21.753906-.15625-32.675781-.480468-21.742187-.648438-43.570312-1.921876-65.355469-3.835938-11.933593-1.042969-23.867187-2.277344-35.769531-3.695312-6.414062-.765626-11.546875-5.695313-12.546875-12.070313-11.632812-74.367187-11.632812-149.453125 0-223.816406 1-6.375 6.132813-11.308594 12.546875-12.070313 11.902344-1.421875 23.835938-2.652344 35.769531-3.699218 21.785157-1.910157 43.613282-3.1875 65.355469-3.832032 10.921875-.324218 21.808594-.480468 32.675781-.480468 10.867188 0 21.753907.15625 32.671876.480468 21.746093.644532 43.574218 1.921875 65.359374 3.832032 11.933594 1.046874 23.867188 2.277343 35.765626 3.699218 6.417968.761719 11.546874 5.695313 12.550781 12.070313 11.628906 74.363281 11.628906 149.449219 0 223.816406zm0 0" fill="#66ccb5"/><path d="m464.316406 292.347656c-12.753906 12.757813-32.007812 15.023438-47.074218 6.808594-3.269532-1.769531-6.347657-4.042969-9.109376-6.808594-2.765624-2.761718-5.039062-5.84375-6.808593-9.109375-8.214844-15.066406-5.949219-34.324219 6.808593-47.078125 12.753907-12.753906 32.007813-15.019531 47.074219-6.808594 3.269531 1.773438 6.347657 4.046876 9.113281 6.808594 2.761719 2.765625 5.039063 5.84375 6.808594 9.113282 8.210938 15.066406 5.941406 34.320312-6.8125 47.074218zm0 0" fill="#585858"/><path d="m455.144531 283.171875c-8.589843 8.589844-21.558593 10.117187-31.703125 4.585937-2.203125-1.191406-4.277344-2.722656-6.136718-4.585937-1.863282-1.859375-3.394532-3.933594-4.585938-6.136719-5.53125-10.144531-4.007812-23.113281 4.585938-31.703125 8.589843-8.589843 21.554687-10.113281 31.703124-4.582031 2.199219 1.191406 4.273438 2.722656 6.136719 4.582031 1.859375 1.863281 3.390625 3.9375 4.582031 6.136719 5.53125 10.148438 4.007813 23.117188-4.582031 31.703125zm0 0" fill="#4a4a4a"/><path d="m459.726562 251.472656-36.285156 36.285156c-2.203125-1.191406-4.277344-2.722656-6.136718-4.585937-1.863282-1.859375-3.394532-3.933594-4.585938-6.136719l36.289062-36.285156c2.199219 1.191406 4.273438 2.722656 6.136719 4.585938 1.859375 1.859374 3.390625 3.933593 4.582031 6.136718zm0 0" fill="#585858"/><path d="m475.953125 178.632812c0 18.039063-12.011719 33.257813-28.472656 38.105469-3.5625 1.058594-7.347657 1.628907-11.257813 1.628907-3.90625 0-7.691406-.570313-11.253906-1.628907-16.464844-4.847656-28.476562-20.066406-28.476562-38.105469 0-18.035156 12.015624-33.253906 28.476562-38.101562 3.5625-1.058594 7.347656-1.628906 11.253906-1.628906 3.910156 0 7.695313.570312 11.257813 1.628906 16.460937 4.847656 28.472656 20.066406 28.472656 38.101562zm0 0" fill="#585858"/><path d="m462.980469 178.632812c0 12.148438-8.089844 22.398438-19.175781 25.660157-2.398438.714843-4.949219 1.097656-7.582032 1.097656-2.628906 0-5.179687-.382813-7.578125-1.097656-11.085937-3.261719-19.175781-13.511719-19.175781-25.660157 0-12.144531 8.089844-22.394531 19.175781-25.65625 2.398438-.714843 4.949219-1.097656 7.578125-1.097656 2.632813 0 5.183594.382813 7.582032 1.097656 11.085937 3.261719 19.175781 13.511719 19.175781 25.65625zm0 0" fill="#4a4a4a"/><path d="m443.804688 152.976562v51.316407c-2.398438.714843-4.949219 1.097656-7.582032 1.097656-2.628906 0-5.179687-.382813-7.578125-1.097656v-51.316407c2.398438-.714843 4.949219-1.097656 7.578125-1.097656 2.632813 0 5.183594.382813 7.582032 1.097656zm0 0" fill="#585858"/><path d="m399.152344 317.929688h74.191406v16.71875h-74.191406zm0 0" fill="#4a4a4a"/><path d="m399.152344 345.097656h74.191406v16.71875h-74.191406zm0 0" fill="#4a4a4a"/><path d="m399.152344 373.542969h74.191406v16.71875h-74.191406zm0 0" fill="#4a4a4a"/><path d="m466.320312 401.980469c-3.992187 5.75-8.214843 11.328125-12.664062 16.71875h-54.503906v-16.71875zm0 0" fill="#4a4a4a"/><path d="m118.789062 146.367188v255.351562c-11.933593-1.042969-23.867187-2.277344-35.769531-3.695312-6.414062-.765626-11.546875-5.695313-12.546875-12.070313-11.632812-74.367187-11.632812-149.453125 0-223.816406 1-6.375 6.132813-11.308594 12.546875-12.070313 11.902344-1.421875 23.835938-2.652344 35.769531-3.699218zm0 0" fill="#66ccb5"/><path d="m184.144531 142.535156v263.019532c-21.742187-.648438-43.570312-1.921876-65.355469-3.835938v-255.351562c21.785157-1.910157 43.613282-3.1875 65.355469-3.832032zm0 0" fill="#ff7591"/><path d="m249.492188 142.535156v263.019532c-10.917969.324218-21.804688.480468-32.671876.480468-10.867187 0-21.753906-.15625-32.675781-.480468v-263.019532c10.921875-.324218 21.808594-.480468 32.675781-.480468 10.867188 0 21.753907.15625 32.671876.480468zm0 0" fill="#fff"/><path d="m314.851562 146.367188v255.351562c-21.785156 1.914062-43.613281 3.1875-65.359374 3.835938v-263.019532c21.746093.644532 43.574218 1.921875 65.359374 3.832032zm0 0" fill="#ffd861"/><path d="m363.167969 385.953125c-1.003907 6.375-6.132813 11.304687-12.550781 12.070313-11.898438 1.417968-23.832032 2.652343-35.765626 3.695312v-255.351562c11.933594 1.046874 23.867188 2.277343 35.765626 3.699218 6.417968.761719 11.546874 5.695313 12.550781 12.070313 11.628906 74.363281 11.628906 149.449219 0 223.816406zm0 0" fill="#7eeef6"/></svg>