<svg id="Capa_1" enable-background="new 0 0 512 512" height="512" viewBox="0 0 512 512" width="512" xmlns="http://www.w3.org/2000/svg"><g><path d="m512 256c0 87.526-43.925 164.793-110.933 210.959-1.801 1.241-12.615.717-14.45 1.913-12.387 8.074-21.764 11.605-35.51 17.468-2.349 1.002.527 7.213-1.857 8.146-28.896 11.307-60.348 17.514-93.25 17.514s-64.354-6.207-93.25-17.514c-2.428-.95 2.209-8.982-.183-10.004-12.723-5.435-24.471-8.613-36.036-15.951-2.738-1.737-12.932.264-15.599-1.573-67.007-46.165-110.932-123.432-110.932-210.958 0-141.385 114.615-256 256-256s256 114.615 256 256z" fill="#464646"/><path d="m459.723 256c0 112.513-91.21 203.723-203.723 203.723s-203.723-91.21-203.723-203.723 91.21-203.723 203.723-203.723 203.723 91.21 203.723 203.723z" fill="#5a5a5a"/><path d="m428.899 232.259-9.865 31.833c-4.515 14.568-15.647 26.147-30.028 31.23-19.292 6.819-32.191 25.059-32.191 45.521v33.067c0 6.915-5.669 12.506-12.613 12.379-6.689-.122-12.149-6.099-12.149-12.789v-4.011c0-5.373-4.355-9.728-9.728-9.728-5.373 0-9.728 4.355-9.728 9.728v4.422c0 6.915-5.669 12.506-12.613 12.379-6.689-.122-12.149-6.099-12.149-12.789v-4.011c0-5.373-4.355-9.728-9.728-9.728s-9.728 4.355-9.728 9.728v4.422c0 6.915-5.669 12.506-12.613 12.379-6.689-.122-12.149-6.099-12.149-12.789v-4.011c0-5.373-4.355-9.728-9.728-9.728s-9.728 4.355-9.728 9.728v4.422c0 6.915-5.669 12.506-12.613 12.379-6.689-.122-12.149-6.099-12.149-12.789v-4.011c0-5.373-4.355-9.728-9.728-9.728-5.373 0-9.728 4.355-9.728 9.728v4.422c0 6.915-5.669 12.506-12.613 12.379-6.689-.122-12.149-6.099-12.149-12.789v-32.657c0-20.462-12.899-38.702-32.191-45.521-14.38-5.083-25.513-16.661-30.028-31.23l-9.865-31.833c-20.424-108.336 62.662-208.554 172.903-208.554 110.241 0 193.327 100.218 172.899 208.55z" fill="#ffd993"/><path d="m428.899 232.259-9.865 31.833c-4.515 14.568-15.647 26.147-30.028 31.23-16.42 5.804-28.209 19.881-31.355 36.56-15.227 5.299-31.195 8.118-47.651 8.118-103.943 0-188.391-112.46-189.977-252.001 31.993-38.958 80.553-64.29 135.977-64.29 110.241 0 193.327 100.218 172.899 208.55z" fill="#ffe7c0"/><path d="m196 203h-40c-19.33 0-35-15.67-35-35s15.67-35 35-35h40c19.33 0 35 15.67 35 35s-15.67 35-35 35zm63.988 13.36c-2.203-3.905-5.774-3.905-7.976 0l-30.359 53.829c-2.722 4.826-1.977 12.963 1.466 16.015 20.699 18.351 45.063 18.351 65.763 0 3.443-3.052 4.188-11.189 1.466-16.015zm96.012-83.36h-40c-19.33 0-35 15.67-35 35s15.67 35 35 35h40c19.33 0 35-15.67 35-35s-15.67-35-35-35z" fill="#464646"/><path d="m290.347 270.189c2.722 4.826 1.977 12.963-1.466 16.015-12.942 11.473-27.316 15.773-41.331 12.9-.822-1.083-1.638-2.211-2.449-3.385-3.443-4.987-4.188-18.282-1.466-26.168l17.597-50.983zm-94.347-137.189h-.362c-19.33 0-35 15.67-35 35s15.67 35 35 35h.362c19.33 0 35-15.67 35-35s-15.67-35-35-35zm160 0h-.362c-19.33 0-35 15.67-35 35s15.67 35 35 35h.362c19.33 0 35-15.67 35-35s-15.67-35-35-35z" fill="#5a5a5a"/><path d="m401.067 466.959c-16.044 11.054-33.412 20.325-51.817 27.527l-282.282-75.637 10.353-38.637z" fill="#ffc14f"/><path d="m170.428 425.865c-2.859 10.669-13.826 17.001-24.495 14.142l-78.965-21.159 10.353-38.637 78.965 21.159c10.67 2.859 17.001 13.826 14.142 24.495z" fill="#ffcd71"/><path d="m97.286 382.973-11.646 43.467c-2.859 10.669-13.826 17.001-24.495 14.142s-17.001-13.825-14.142-24.495l11.647-43.467c2.859-10.669 13.825-17.001 24.495-14.142 10.669 2.859 17 13.826 14.141 24.495z" fill="#ffd993"/><path d="m445.032 418.849-282.282 75.637c-18.405-7.202-35.773-16.473-51.817-27.527l323.746-86.748z" fill="#ffcd71"/><path d="m445.032 418.849-212.504 56.94c-10.669 2.859-21.636-3.473-24.495-14.142s3.473-21.636 14.142-24.495l212.504-56.94z" fill="#ffd993"/><path d="m450.855 440.582c-10.669 2.859-21.636-3.473-24.495-14.142l-11.647-43.467c-2.859-10.669 3.473-21.636 14.142-24.495s21.636 3.473 24.495 14.142l11.647 43.467c2.859 10.67-3.472 21.636-14.142 24.495z" fill="#ffe7c0"/><path d="m335.016 71.076-19.932 44.293c-1.268 2.818-4.072 4.631-7.162 4.631h-.068c-4.338 0-7.854-3.516-7.854-7.854v-44.292c0-4.337-3.516-7.854-7.854-7.854-5.699 0-9.501-5.879-7.162-11.077l19.932-44.292c1.268-2.818 4.072-4.631 7.162-4.631h.068c4.338 0 7.854 3.516 7.854 7.854v44.293c0 4.337 3.516 7.854 7.854 7.854 5.699-.001 9.5 5.878 7.162 11.075z" fill="#ffb52d"/></g></svg>